Coordinates
version=1
nRows=15
nColumns=33
inDegrees=yes

Units are S.I. units (second, meters, Newtons, ...)
Angles are in degrees.

endheader
time	ground_thorax_rot_x	ground_thorax_rot_y	ground_thorax_rot_z	ground_thorax_tx	ground_thorax_ty	ground_thorax_tz	clav_prot_r	clav_elev_r	scapula_abduction_r	scapula_elevation_r	scapula_upward_rot_r	scapula_winging_r	shoulder_elv_r	plane_of_elev_r	axial_rot_r	elbow_flexion_r	pro_sup_r	wrist_flex_r	wrist_dev_r	clav_prot_l	clav_elev_l	scapula_abduction_l	scapula_elevation_l	scapula_upward_rot_l	scapula_winging_l	shoulder_elv_l	plane_of_elev_l	axial_rot_l	elbow_flexion_l	pro_sup_l	wrist_flex_l	wrist_dev_l	
4.8000	-2.373392	2.821844	9.748329	-0.098031	1.026740	0.011802	16.975950	-13.033954	43.123770	-13.559505	24.221050	-12.238712	-4.344807	-55.386458	122.130508	-32.550005	-145.783169	1.962325	-10.333691	25.891870	-10.914820	-38.918105	-6.134056	-25.216577	13.365976	54.623174	1.135350	4.023162	13.508126	18.708939	19.242639	-5.678137	
4.8100	-2.489366	3.142359	9.730465	-0.097958	1.027296	0.011799	16.608137	-13.385808	42.126560	-13.720866	23.615856	-11.616008	-3.459186	-55.272035	122.606989	-33.844683	-130.023730	4.134182	4.392623	25.761556	-10.912632	-38.698274	-6.231405	-25.406038	13.217540	54.909152	1.048861	3.903548	13.932974	18.076155	19.159835	-5.913164	
4.8200	-2.528972	3.390117	9.750270	-0.097955	1.027457	0.011949	16.472178	-13.579867	41.627678	-13.785610	23.202769	-11.310651	-3.173256	-55.305290	122.477965	-34.701772	-123.731825	4.089393	11.167580	25.618591	-10.849812	-38.466897	-6.363411	-25.558765	13.079476	55.056586	0.908106	3.949292	14.510320	17.615522	19.099813	-6.184983	
4.8300	-2.584398	3.622611	9.784265	-0.097974	1.027558	0.012120	16.317199	-13.796688	41.047089	-13.849556	22.712707	-10.961886	-2.909890	-55.347972	122.299925	-35.650324	-118.069692	3.647146	17.735892	25.443537	-10.779563	-38.182896	-6.515723	-25.736972	12.908269	55.237725	0.691190	4.018934	15.219113	17.116963	19.007554	-6.500993	
4.8400	-2.627770	3.813442	9.836425	-0.098065	1.027543	0.012304	16.206906	-14.030736	40.487622	-13.905915	22.150122	-10.623275	-2.743926	-55.464348	122.114616	-36.439848	-116.662945	2.591337	20.760969	25.229761	-10.696550	-37.836628	-6.689817	-25.933209	12.700182	55.420028	0.405549	4.159223	16.076244	16.702957	18.900291	-6.830210	
4.8500	-2.650645	3.979794	9.903390	-0.098239	1.027373	0.012521	16.116929	-14.221473	39.941302	-13.912946	21.553701	-10.324029	-2.726637	-55.633031	121.890937	-37.141556	-118.617562	1.260074	20.846654	25.002402	-10.595395	-37.470244	-6.889333	-26.148692	12.482486	55.586436	0.071960	4.377955	17.083339	16.368624	18.802174	-7.174653	
4.8600	-2.666646	4.117665	9.975791	-0.098494	1.027183	0.012707	16.011979	-14.452428	39.301284	-13.925084	20.851896	-9.968173	-2.701174	-55.864432	121.847684	-37.768830	-123.062943	0.215896	18.692303	24.741812	-10.500960	-37.048228	-7.102022	-26.399585	12.226427	55.785997	-0.307946	4.649586	18.218561	16.133064	18.724670	-7.506063	
4.8700	-2.661552	4.244167	10.051824	-0.098826	1.026925	0.012902	15.882134	-14.631633	38.609694	-13.883060	20.122536	-9.624084	-2.752287	-56.122998	121.883581	-38.408444	-128.740141	-0.387219	15.204266	24.480059	-10.402376	-36.625153	-7.331675	-26.678377	11.968661	55.982431	-0.706361	4.977585	19.464501	15.971777	18.695271	-7.832573	
4.8800	-2.659377	4.361033	10.132164	-0.099223	1.026731	0.013066	15.704061	-14.845489	37.786833	-13.846181	19.306261	-9.204569	-2.757649	-56.415010	122.069994	-39.212673	-133.618860	-0.234888	12.422689	24.204589	-10.322891	-36.177627	-7.571706	-27.011649	11.687478	56.231636	-1.133852	5.314498	20.804590	15.851212	18.712100	-8.141409	
4.8900	-2.640985	4.465438	10.216052	-0.099658	1.026492	0.013264	15.508821	-14.982522	36.963627	-13.746909	18.518225	-8.829109	-2.875988	-56.716369	122.170083	-40.254827	-137.382361	0.200147	10.609018	23.933369	-10.227570	-35.740038	-7.839858	-27.376231	11.413277	56.467771	-1.571990	5.702713	22.236808	15.732754	18.773323	-8.451214	
4.9000	-2.622878	4.538203	10.304476	-0.100115	1.026319	0.013453	15.301888	-15.145294	36.107590	-13.659658	17.704834	-8.422773	-3.035662	-57.070723	122.258766	-41.481264	-140.727972	0.682983	9.400897	23.633998	-10.130646	-35.257719	-8.132163	-27.785097	11.108224	56.733002	-2.045226	6.126656	23.761007	15.624655	18.888539	-8.753717	
4.9100	-2.589325	4.582168	10.385833	-0.100584	1.026152	0.013653	15.085331	-15.256337	35.258941	-13.531203	16.917073	-8.049130	-3.262163	-57.442732	122.312042	-42.876918	-143.474165	1.072328	8.660661	23.324153	-10.004943	-34.763260	-8.458309	-28.211262	10.799583	56.972159	-2.525263	6.597760	25.355899	15.502664	19.034099	-9.053136	
4.9200	-2.548702	4.596692	10.468382	-0.101072	1.026044	0.013848	14.866946	-15.359861	34.411361	-13.392796	16.130392	-7.679157	-3.545356	-57.859831	122.343453	-44.414490	-145.935105	1.376950	8.206666	23.002598	-9.862226	-34.253611	-8.813205	-28.664921	10.481783	57.203336	-3.029379	7.084465	27.020711	15.372346	19.203148	-9.346658	
4.9300	-2.492591	4.583170	10.552382	-0.101582	1.025971	0.014055	14.657800	-15.415664	33.601973	-13.216095	15.370982	-7.353473	-3.916253	-58.307545	122.305796	-46.100012	-147.866005	1.587001	8.026015	22.679011	-9.700923	-33.745999	-9.191002	-29.132101	10.166714	57.407811	-3.566378	7.569185	28.747722	15.215722	19.379131	-9.635310	
4.9400	-2.431526	4.541872	10.647999	-0.102108	1.025992	0.014262	14.448246	-15.465503	32.800570	-13.032763	14.619579	-7.032332	-4.370507	-58.805552	122.227766	-47.881800	-149.608233	1.757114	7.899547	22.347233	-9.536791	-33.228404	-9.583332	-29.622485	9.842393	57.611014	-4.161162	8.019869	30.536209	15.036095	19.573190	-9.921896	
